<svg width="1200" height="900" viewBox="0 0 1200 900" fill="none" xmlns="http://www.w3.org/2000/svg">
  <rect width="1200" height="900" rx="56" fill="#F5EBDD"/>
  <rect x="88" y="88" width="1024" height="724" rx="44" fill="#FFF8EF"/>
  <path d="M0 740C182 675 341 670 510 724C663 773 825 782 984 743C1068 722 1141 690 1200 654V900H0V740Z" fill="#E5C8A7"/>
  <rect x="282" y="252" width="636" height="336" rx="56" fill="#F2E3CF"/>
  <path d="M406 520L540 386L640 470L770 334L876 470V560H324V520H406Z" fill="#A05A2C"/>
  <circle cx="480" cy="344" r="48" fill="#D6B183"/>
  <rect x="404" y="624" width="392" height="36" rx="18" fill="#8F5B33"/>
</svg>
